PathFileType	4	(X/Y/Z)	Walking01.trc	
DataRate	CameraRate	NumFrames	NumMarkers	Units	OrigDataRate	OrigDataStartFrame	OrigNumFrames	
100.00	100.00	15	19	mm	100.00	384	102	
Frame#	Time	RPSI			LPSI			RASI			LASI			RTHI			RKNE			RHFB			RTUB			RSHN			RANK			RLCA			RSTL			RPCA			RCPG			RHEE			RP5M			RP1M			RD5M			RTOE			
		X1	Y1	Z1	X2	Y2	Z2	X3	Y3	Z3	X4	Y4	Z4	X5	Y5	Z5	X6	Y6	Z6	X7	Y7	Z7	X8	Y8	Z8	X9	Y9	Z9	X10	Y10	Z10	X11	Y11	Z11	X12	Y12	Z12	X13	Y13	Z13	X14	Y14	Z14	X15	Y15	Z15	X16	Y16	Z16	X17	Y17	Z17	X18	Y18	Z18	X19	Y19	Z19	

26	0.250	-553.66632	927.13000	121.48553	-557.57880	925.75500	27.78712	-364.05728	883.17615	191.07306	-363.99307	873.15497	-43.96006	-437.73340	572.09052	218.20020	-433.23856	430.50092	185.75940	-440.08398	388.87814	182.50778	-380.41669	378.92941	127.55167	-398.57059	305.99414	118.25387	-501.20258	60.46301	137.66724	-513.75555	37.64692	129.25111	-500.04990	37.92346	66.58636	-535.47308	62.14115	93.06255	-561.91699	49.15921	91.07052	-545.03638	21.07475	87.69668	-425.06763	9.24442	169.63206	-397.33524	56.99353	87.05489	-387.44418	12.08153	174.94684	-348.56070	31.80799	133.09871 
27	0.260	-540.73132	928.97546	121.26237	-544.93506	927.38141	27.39536	-351.59421	883.83624	191.25424	-351.11682	874.68378	-42.91031	-431.94501	572.17450	217.31767	-429.97665	430.51785	184.92946	-436.95078	388.96417	181.77802	-377.55524	378.20770	126.24609	-396.50281	306.00119	117.35594	-500.89294	60.82936	137.42703	-513.52521	38.12101	128.94441	-499.48944	37.88353	66.49448	-534.52106	62.67764	93.18739	-560.91693	49.58126	90.56042	-545.50305	21.73668	87.49774	-424.96194	9.45351	169.52483	-397.14175	56.85056	86.94138	-387.40799	12.11248	174.91420	-348.44284	31.69492	133.00768 
28	0.270	-527.80194	930.42053	120.84788	-532.23370	928.67035	26.91328	-339.15167	884.22778	191.54865	-338.31848	875.77515	-42.13831	-426.11868	572.22876	216.38799	-426.62616	430.57672	183.95212	-434.04224	389.11862	180.95667	-374.65579	377.76218	125.36707	-394.35251	305.89957	116.68861	-500.57001	61.22116	137.09276	-513.28674	38.64287	128.61240	-499.51468	38.27609	65.85310	-533.82751	63.72135	92.61334	-560.25073	50.15738	90.18005	-542.79199	21.50365	86.66093	-424.85077	9.72117	169.37331	-396.81561	56.68289	86.44749	-387.40790	12.07389	174.81801	-348.36203	31.67085	132.87888 
29	0.280	-514.89679	931.41229	120.30826	-519.48029	929.58545	26.38216	-326.72156	884.25317	191.92740	-325.59903	876.37396	-41.79776	-420.28406	572.13690	215.45709	-423.24417	430.72125	183.02512	-431.31415	389.43362	180.11993	-371.97516	377.15256	124.41254	-392.31223	305.83456	116.22362	-500.27423	61.69853	136.66512	-513.01965	39.14691	128.20288	-499.12192	38.51900	65.67680	-533.87476	63.99071	91.99762	-559.82941	50.75906	89.66985	-542.33942	22.02279	86.28139	-424.77725	10.06068	169.13133	-396.60730	56.47441	85.99606	-387.49847	11.89925	174.75182	-348.33557	31.65479	132.76024 
30	0.290	-502.06345	931.98181	119.68355	-506.75177	930.08087	25.80963	-314.43790	883.78131	192.27951	-312.82089	876.50134	-41.72159	-413.86621	572.14343	214.50349	-419.81119	430.93033	182.15375	-428.72519	389.74487	179.24817	-369.34845	376.52689	123.69965	-390.16092	305.96436	115.96693	-500.05161	62.04602	136.41193	-512.76068	39.44875	127.93478	-498.12280	38.56897	65.77283	-533.16699	64.30987	92.00539	-559.49963	51.52268	88.91706	-542.44122	22.59527	86.01447	-424.45233	10.06013	168.19720	-396.25989	56.35480	85.68031	-387.48663	11.97436	174.70409	-348.24789	31.49547	132.79868 
31	0.300	-489.26389	932.00916	119.02731	-493.99771	930.08459	25.17987	-302.06720	882.89777	192.52792	-300.00500	876.18646	-41.86372	-406.76538	572.26758	213.51874	-416.57736	431.23920	181.23680	-426.15790	390.10498	178.39929	-366.87268	375.94373	123.20283	-387.79471	304.93106	115.42065	-499.88449	62.09763	136.35088	-512.59735	39.53513	127.92325	-497.62363	38.92841	65.36269	-532.71259	64.96168	91.41063	-559.19318	52.33757	88.04121	-542.11676	23.05381	85.55309	-423.85284	9.68691	166.50752	-395.83899	56.34275	85.45811	-387.38403	12.13388	174.66058	-348.17529	31.43095	132.76550 
32	0.310	-476.56021	931.49396	118.35051	-481.10342	929.51660	24.59467	-289.54932	881.64856	192.61594	-287.09900	875.65411	-42.26921	-399.30414	572.15399	212.48976	-413.38730	431.58966	180.46140	-423.58826	390.44720	177.57234	-364.40082	375.62408	123.13308	-385.47299	304.48978	114.85737	-499.60410	62.83818	135.72598	-512.38544	40.32611	127.24744	-497.32184	39.43873	64.74762	-532.22821	65.72064	90.69991	-558.87714	53.11303	87.15577	-541.90393	23.76123	84.82898	-423.91223	10.30455	166.37463	-395.42294	56.30292	85.22305	-387.37717	12.24027	174.52295	-348.10770	31.44454	132.65527 
33	0.320	-463.85452	930.39203	117.58757	-468.13577	928.48126	24.01520	-276.84219	880.07013	192.44791	-274.08215	874.94897	-42.94871	-391.49838	571.82336	211.64046	-409.85675	431.85446	179.78841	-420.84427	390.78885	176.79942	-361.63538	374.96652	122.67037	-382.98135	304.15671	114.30353	-499.27820	64.04933	134.78871	-512.12189	41.60183	126.22034	-497.12125	40.02208	64.01201	-531.76703	66.55685	90.04258	-558.56989	54.11068	86.30064	-541.94354	24.67026	83.98664	-424.32224	11.52460	167.17245	-395.05774	56.30428	84.95258	-387.41483	12.35478	174.35321	-348.09766	31.45060	132.52545 
34	0.330	-451.12192	928.68286	116.78397	-454.99002	926.91211	23.37240	-263.99097	878.37427	192.19327	-260.97708	873.94812	-43.71892	-383.43323	571.24963	210.90915	-405.86520	431.90533	179.11514	-417.75336	391.02881	176.06651	-358.80301	374.08752	121.79066	-380.33920	303.80560	113.87050	-498.93845	65.06429	134.15048	-511.97928	42.64188	125.50274	-496.80371	40.70628	63.43240	-531.37610	67.54900	89.35468	-558.31799	55.27455	85.49352	-541.84424	25.61241	83.40804	-424.42209	12.19432	167.07002	-394.76767	56.35025	84.59398	-387.48663	12.47325	174.16936	-347.93359	31.31672	132.66141 
35	0.340	-438.38153	926.53241	115.92875	-441.74173	924.84106	22.70272	-251.58769	876.26855	192.04173	-247.60333	872.68506	-44.43668	-375.14746	570.52924	210.25586	-401.25320	431.90671	178.53281	-414.02454	391.20554	175.43065	-355.09918	373.48486	121.43134	-377.40900	303.50168	113.51260	-498.52170	65.97878	133.45265	-511.83682	43.60376	124.69240	-496.40958	41.72226	62.81102	-530.89758	68.61734	88.69395	-558.04321	56.45173	84.81020	-541.70270	26.77267	82.61955	-424.45120	12.77687	166.63145	-394.44904	56.43863	84.20547	-387.60623	12.60036	173.91022	-347.82693	31.23742	132.71176 
36	0.350	-425.58017	924.02374	114.96598	-428.55817	922.44391	21.87773	-238.90897	874.11279	191.97185	-233.93607	871.24817	-45.00137	-366.74179	569.85626	209.75160	-395.88629	431.89380	178.03227	-409.60803	391.30905	174.86726	-350.67838	372.99173	121.30424	-374.18176	303.19302	113.14590	-498.05963	66.96673	132.55579	-511.59305	44.59902	123.73000	-495.88083	42.97020	61.97814	-530.30743	69.89121	87.85310	-557.68274	57.79046	83.95390	-541.50568	28.12686	81.36186	-424.46146	13.37346	166.00504	-394.06836	56.54897	83.79752	-387.78683	12.75497	173.55252	-348.09396	31.22100	132.45805 
37	0.360	-412.93555	921.32855	113.86665	-415.56552	919.69281	20.85478	-226.12691	871.71289	191.88026	-219.99013	869.43341	-45.43008	-358.30835	569.21436	209.35693	-389.76138	431.84387	177.49529	-404.61676	391.37854	174.29376	-346.95673	371.65433	119.74793	-370.68643	302.80582	112.56299	-497.57254	68.23579	131.70808	-511.30350	45.99604	122.74175	-495.33118	44.13987	61.15942	-529.70355	71.53543	86.79655	-557.21008	59.45514	82.64908	-541.29327	29.70273	80.24621	-424.45224	13.99198	165.37617	-393.61826	56.67265	83.36039	-388.05228	12.92103	173.19170	-348.19107	31.14191	132.30705 
38	0.370	-400.56372	918.72894	112.61056	-402.64066	916.71692	19.79546	-212.85783	869.26404	192.18726	-205.76523	867.31647	-45.59581	-349.73453	568.61621	209.03954	-383.18143	431.62268	176.98589	-398.87332	391.35730	173.68108	-342.03290	370.72186	118.79095	-366.81738	302.36649	111.66212	-496.99164	69.58119	130.95222	-510.92941	47.49618	122.04912	-494.90411	45.43113	60.54871	-529.01532	73.40179	86.10545	-556.59851	61.70010	81.80065	-541.02838	31.48222	79.57304	-424.41388	13.88545	164.30363	-393.13583	56.87457	82.99886	-388.26950	13.04925	172.84647	-348.26514	31.05961	132.17691 
39	0.380	-387.58276	916.23883	110.98148	-389.15723	913.45966	18.47535	-199.20358	866.74121	192.99194	-191.19537	864.81989	-45.57022	-341.08679	568.02100	208.71916	-376.17804	431.24707	176.44389	-392.50363	391.29291	173.06856	-336.09375	369.89465	117.88557	-362.52316	301.87000	110.53817	-496.15897	70.92921	130.31081	-510.52155	49.04838	121.57865	-494.54758	46.93375	60.07605	-528.22485	75.28402	85.63411	-556.12231	63.91226	81.51141	-540.81995	33.45163	79.08121	-424.48550	12.88317	162.49234	-392.66629	57.11691	82.72473	-388.44739	13.15900	172.53404	-348.24664	31.12896	132.25267 
40	0.390	-374.01892	913.74548	109.17237	-374.57068	909.89111	16.90360	-186.20837	864.05524	193.21397	-176.54578	862.10797	-45.49310	-332.21619	567.21088	208.28531	-368.64645	430.74484	175.91695	-385.63864	391.06302	172.65480	-329.59332	368.89075	117.29638	-357.49628	301.29373	109.78730	-495.24911	72.44225	130.18060	-510.00275	50.83807	121.53201	-494.19189	48.64919	59.83984	-527.36713	77.40718	85.43290	-555.47363	66.37728	81.28000	-540.79456	35.73154	79.04223	-424.55984	13.02683	161.64241	-392.21548	57.36341	82.57976	-388.64410	13.03650	172.14627	-348.23828	31.28599	132.31659 
